<svg xmlns="http://www.w3.org/2000/svg" xmlns:xlink="http://www.w3.org/1999/xlink" width="1200" height="1200" viewBox="0 0 1200 1200"><circle stroke="none" fill="#419aef" r="48%" cx="50%" cy="50%"></circle><g transform="translate(600 600) scale(0.69 0.69) rotate(0) translate(-600 -600)" style="fill:#ffffff"><svg fill="#ffffff" xmlns:dc="http://purl.org/dc/elements/1.1/" xmlns:cc="http://creativecommons.org/ns#" xmlns:rdf="http://www.w3.org/1999/02/22-rdf-syntax-ns#" xmlns:svg="http://www.w3.org/2000/svg" xmlns="http://www.w3.org/2000/svg" xmlns:sodipodi="http://sodipodi.sourceforge.net/DTD/sodipodi-0.dtd" xmlns:inkscape="http://www.inkscape.org/namespaces/inkscape" version="1.1" x="0px" y="0px" viewBox="0 0 100 100"><g transform="translate(0,-952.36218)"><path style="text-indent:0;text-transform:none;direction:ltr;block-progression:tb;baseline-shift:baseline;color:#000000;enable-background:accumulate;" d="m 18,1036.3622 c -4.9514,0 -9.0000001,-4.0486 -9.0000001,-9 l 0,-40 c 0,-4.9514 4.0486001,-9 9.0000001,-9 l 12.6562,0 3.5,-8.71879 A 2.0001999,2.0001999 0 0 1 36,968.36216 l 28,0 a 2.0001999,2.0001999 0 0 1 1.8438,1.28125 l 3.5,8.71879 12.6562,0 c 4.9514,0 9,4.0486 9,9 l 0,40 c 0,4.9514 -4.0486,9 -9,9 l -64,0 z m 0,-4 64,0 c 2.8046,0 5,-2.1954 5,-5 l 0,-40 c 0,-2.8046 -2.1954,-5 -5,-5 l -14,0 a 2.0001999,2.0001999 0 0 1 -1.8438,-1.25 l -3.5,-8.75004 -25.3124,0 -3.5,8.75004 A 2.0001999,2.0001999 0 0 1 32,982.3622 l -14,0 c -2.8046,0 -5,2.1954 -5,5 l 0,40 c 0,2.8046 2.1954,5 5,5 z m 32,-7 c -9.9173,0 -18,-8.0826 -18,-18 0,-9.9175 8.0827,-18 18,-18 9.9175,0 18,8.0826 18,18 0,9.9174 -8.0825,18 -18,18 z m 0,-4 c 7.7557,0 14,-6.2444 14,-14 0,-7.7557 -6.2443,-14 -14,-14 -7.7555,0 -14,6.2443 -14,14 0,7.7556 6.2445,14 14,14 z" fill="#ffffff" fill-opacity="1" stroke="none" marker="none" visibility="visible" display="inline" overflow="visible"></path></g></svg></g></svg>