<svg width="461" height="158" viewBox="0 0 461 158" fill="none" xmlns="http://www.w3.org/2000/svg">
<path d="M212 59C184.5 59 180.5 82.5 180.5 82.5C180.5 82.5 174.226 77.0986 168.5 74.5C161.979 71.5405 150.5 71 150.5 71C152.5 58.5 173.45 34.0368 203 33C231.5 32 295.333 32 324.5 31.5H420C421.105 31.5 422 32.3954 422 33.5V57C422 58.1046 421.105 59 420 59H377V139H349V59L326 59V139C326 139 298.5 139.167 298 139C297.5 138.833 298 59 298 59C287.167 59.8333 239.5 59 212 59Z" fill="#267AC0"/>
<path d="M280 137C280 137 211 138 195 135.5C179 133 144 116 148 73.5C152.5 73.8133 159.909 74.4216 167 77C178 81 182 92 185.5 98C190.186 106.034 204 110 212.5 109.5H231.5H250.5V95L197.5 94.5L214.013 73.3999C214.953 72.1995 216.388 71.4932 217.912 71.4816L281 71C283.5 71 283.5 74.5 283.5 75.5L284 130C284 135.5 284 137 280 137Z" fill="#58E655"/>
<path d="M58.2421 115.5C62.2421 110.5 64.2421 110 73.2421 110C99.7421 110 152.742 108 152.742 108C152.742 108 156.593 114.709 159.742 118.5C163.804 123.39 171.742 129.5 171.742 129.5C172.242 131.5 143.742 138 134.242 138.5C126.877 138.888 102.242 138.5 92.2421 138C82.2421 137.5 44.7421 137.5 44.7421 137.5C43.2421 137.5 42.242 136.1 43.742 134C46.2421 130.5 53.3137 121.66 58.2421 115.5Z" fill="#58E655"/>
<path d="M82.0001 32C100.5 31 184.5 33 184.5 33C184.5 33 170.5 40 165 44C159.5 48 152 59.5 152 59.5C104 59.5 96.5 59.5 84.5 60.5C79.019 60.9567 77.5 64 77.5 67.5C77.5 70.5 81 73 84.5 73H146C146 73 145.591 81.8153 146 86.5C146.404 91.1237 148 95 148 95C148 95 148 95.4 146 95C144 94.6 135.5 94.5 135.5 94.5C116.333 94.5 89 96.111 74.5 94.5C61 93 44.3681 87.0125 45 63C45.5 44 63.5 33 82.0001 32Z" fill="#58E655"/>
</svg>
