<svg width="474" height="158" viewBox="0 0 474 158" fill="none" xmlns="http://www.w3.org/2000/svg">
<path d="M391.297 56.4219H386.062C381.011 56.4219 376.902 60.1014 376.902 64.625V83.375C376.902 87.8986 381.011 91.5781 386.062 91.5781H391.297C396.348 91.5781 400.457 87.8986 400.457 83.375V64.625C400.457 60.1014 396.348 56.4219 391.297 56.4219ZM392.605 83.375C392.605 84.0214 392.019 84.5469 391.297 84.5469H386.062C385.341 84.5469 384.754 84.0214 384.754 83.375V64.625C384.754 63.9786 385.341 63.4531 386.062 63.4531H391.297C392.019 63.4531 392.605 63.9786 392.605 64.625V83.375Z" fill="#46465A" fill-opacity="0.31"/>
<path d="M359.891 84.5469H355.965V59.9375C355.965 57.9957 354.207 56.4219 352.039 56.4219H344.188C342.019 56.4219 340.262 57.9957 340.262 59.9375C340.262 61.8793 342.019 63.4531 344.188 63.4531H348.113V84.5469H344.188C342.019 84.5469 340.262 86.1207 340.262 88.0625C340.262 90.0043 342.019 91.5781 344.188 91.5781H359.891C362.059 91.5781 363.816 90.0043 363.816 88.0625C363.816 86.1207 362.059 84.5469 359.891 84.5469Z" fill="#46465A" fill-opacity="0.31"/>
<path d="M427.938 56.4219H422.703C417.652 56.4219 413.543 60.1014 413.543 64.625V83.375C413.543 87.8986 417.652 91.5781 422.703 91.5781H427.938C432.989 91.5781 437.098 87.8986 437.098 83.375V64.625C437.098 60.1014 432.989 56.4219 427.938 56.4219ZM429.246 83.375C429.246 84.0214 428.659 84.5469 427.938 84.5469H422.703C421.981 84.5469 421.395 84.0214 421.395 83.375V64.625C421.395 63.9786 421.981 63.4531 422.703 63.4531H427.938C428.659 63.4531 429.246 63.9786 429.246 64.625V83.375Z" fill="#46465A" fill-opacity="0.31"/>
<path d="M469.812 84.5469H465.887V59.9375C465.887 57.9957 464.129 56.4219 461.961 56.4219H454.109C451.941 56.4219 450.184 57.9957 450.184 59.9375C450.184 61.8793 451.941 63.4531 454.109 63.4531H458.035V84.5469H454.109C451.941 84.5469 450.184 86.1207 450.184 88.0625C450.184 90.0043 451.941 91.5781 454.109 91.5781H469.812C471.981 91.5781 473.738 90.0043 473.738 88.0625C473.738 86.1207 471.981 84.5469 469.812 84.5469Z" fill="#46465A" fill-opacity="0.31"/>
<path d="M391.297 98.8438H386.062C381.011 98.8438 376.902 102.523 376.902 107.047V125.797C376.902 130.32 381.011 134 386.062 134H391.297C396.348 134 400.457 130.32 400.457 125.797V107.047C400.457 102.523 396.348 98.8438 391.297 98.8438ZM392.605 125.797C392.605 126.443 392.019 126.969 391.297 126.969H386.062C385.341 126.969 384.754 126.443 384.754 125.797V107.047C384.754 106.401 385.341 105.875 386.062 105.875H391.297C392.019 105.875 392.605 106.401 392.605 107.047V125.797Z" fill="#46465A" fill-opacity="0.31"/>
<path d="M359.891 126.969H355.965V102.359C355.965 100.418 354.207 98.8438 352.039 98.8438H344.188C342.019 98.8438 340.262 100.418 340.262 102.359C340.262 104.301 342.019 105.875 344.188 105.875H348.113V126.969H344.188C342.019 126.969 340.262 128.543 340.262 130.484C340.262 132.426 342.019 134 344.188 134H359.891C362.059 134 363.816 132.426 363.816 130.484C363.816 128.543 362.059 126.969 359.891 126.969Z" fill="#46465A" fill-opacity="0.31"/>
<path d="M464.578 98.8438H459.344C454.292 98.8438 450.184 102.523 450.184 107.047V125.797C450.184 130.32 454.292 134 459.344 134H464.578C469.63 134 473.738 130.32 473.738 125.797V107.047C473.738 102.523 469.63 98.8438 464.578 98.8438ZM465.887 125.797C465.887 126.443 465.3 126.969 464.578 126.969H459.344C458.622 126.969 458.035 126.443 458.035 125.797V107.047C458.035 106.401 458.622 105.875 459.344 105.875H464.578C465.3 105.875 465.887 106.401 465.887 107.047V125.797Z" fill="#46465A" fill-opacity="0.31"/>
<path d="M433.172 126.969H429.246V102.359C429.246 100.418 427.489 98.8438 425.32 98.8438H417.469C415.3 98.8438 413.543 100.418 413.543 102.359C413.543 104.301 415.3 105.875 417.469 105.875H421.395V126.969H417.469C415.3 126.969 413.543 128.543 413.543 130.484C413.543 132.426 415.3 134 417.469 134H433.172C435.34 134 437.098 132.426 437.098 130.484C437.098 128.543 435.34 126.969 433.172 126.969Z" fill="#46465A" fill-opacity="0.31"/>
<path d="M354.656 14H349.422C344.37 14 340.262 17.6795 340.262 22.2031V40.9531C340.262 45.4767 344.37 49.1562 349.422 49.1562H354.656C359.708 49.1562 363.816 45.4767 363.816 40.9531V22.2031C363.816 17.6795 359.708 14 354.656 14ZM355.965 40.9531C355.965 41.5995 355.378 42.125 354.656 42.125H349.422C348.7 42.125 348.113 41.5995 348.113 40.9531V22.2031C348.113 21.5568 348.7 21.0312 349.422 21.0312H354.656C355.378 21.0312 355.965 21.5568 355.965 22.2031V40.9531Z" fill="#46465A" fill-opacity="0.31"/>
<path d="M396.531 42.125H392.605V17.5156C392.605 15.5738 390.848 14 388.68 14H380.828C378.66 14 376.902 15.5738 376.902 17.5156C376.902 19.4575 378.66 21.0312 380.828 21.0312H384.754V42.125H380.828C378.66 42.125 376.902 43.6988 376.902 45.6406C376.902 47.5825 378.66 49.1562 380.828 49.1562H396.531C398.7 49.1562 400.457 47.5825 400.457 45.6406C400.457 43.6988 398.7 42.125 396.531 42.125Z" fill="#46465A" fill-opacity="0.31"/>
<path d="M464.578 14H459.344C454.292 14 450.184 17.6795 450.184 22.2031V40.9531C450.184 45.4767 454.292 49.1562 459.344 49.1562H464.578C469.63 49.1562 473.738 45.4767 473.738 40.9531V22.2031C473.738 17.6795 469.63 14 464.578 14ZM465.887 40.9531C465.887 41.5995 465.3 42.125 464.578 42.125H459.344C458.622 42.125 458.035 41.5995 458.035 40.9531V22.2031C458.035 21.5568 458.622 21.0312 459.344 21.0312H464.578C465.3 21.0312 465.887 21.5568 465.887 22.2031V40.9531Z" fill="#46465A" fill-opacity="0.31"/>
<path d="M433.172 42.125H429.246V17.5156C429.246 15.5738 427.489 14 425.32 14H417.469C415.3 14 413.543 15.5738 413.543 17.5156C413.543 19.4575 415.3 21.0312 417.469 21.0312H421.395V42.125H417.469C415.3 42.125 413.543 43.6988 413.543 45.6406C413.543 47.5825 415.3 49.1562 417.469 49.1562H433.172C435.34 49.1562 437.098 47.5825 437.098 45.6406C437.098 43.6988 435.34 42.125 433.172 42.125Z" fill="#46465A" fill-opacity="0.31"/>
<path d="M392.605 83.375C392.605 84.0214 392.019 84.5469 391.297 84.5469H386.062C385.341 84.5469 384.754 84.0214 384.754 83.375V74H376.902V83.375C376.902 87.8986 381.011 91.5781 386.062 91.5781H391.297C396.348 91.5781 400.457 87.8986 400.457 83.375V74H392.605V83.375Z" fill="#46465A" fill-opacity="0.31"/>
<path d="M348.113 84.5469H344.188C342.019 84.5469 340.262 86.1207 340.262 88.0625C340.262 90.0043 342.019 91.5781 344.188 91.5781H359.891C362.059 91.5781 363.816 90.0043 363.816 88.0625C363.816 86.1207 362.059 84.5469 359.891 84.5469H355.965V74H348.113V84.5469Z" fill="#46465A" fill-opacity="0.31"/>
<path d="M429.246 83.375C429.246 84.0214 428.659 84.5469 427.938 84.5469H422.703C421.981 84.5469 421.395 84.0214 421.395 83.375V74H413.543V83.375C413.543 87.8986 417.652 91.5781 422.703 91.5781H427.938C432.989 91.5781 437.098 87.8986 437.098 83.375V74H429.246V83.375Z" fill="#46465A" fill-opacity="0.31"/>
<path d="M469.812 84.5469H465.887V74H458.035V84.5469H454.109C451.941 84.5469 450.184 86.1207 450.184 88.0625C450.184 90.0043 451.941 91.5781 454.109 91.5781H469.812C471.981 91.5781 473.738 90.0043 473.738 88.0625C473.738 86.1207 471.981 84.5469 469.812 84.5469Z" fill="#46465A" fill-opacity="0.31"/>
<path d="M212 59C184.5 59 180.5 82.5 180.5 82.5C180.5 82.5 174.226 77.0986 168.5 74.5C161.979 71.5405 150.5 71 150.5 71C152.5 58.5 173.45 34.0368 203 33C231.5 32 295.333 32 324.5 31.5H420C421.105 31.5 422 32.3954 422 33.5V57C422 58.1046 421.105 59 420 59H377V139H349V59L326 59V139C326 139 298.5 139.167 298 139C297.5 138.833 298 59 298 59C287.167 59.8333 239.5 59 212 59Z" fill="#267AC0"/>
<path d="M280 137C280 137 211 138 195 135.5C179 133 144 116 148 73.5C152.5 73.8133 159.909 74.4216 167 77C178 81 182 92 185.5 98C190.186 106.034 204 110 212.5 109.5H231.5H250.5V95L197.5 94.5L214.013 73.3999C214.953 72.1995 216.388 71.4932 217.912 71.4816L281 71C283.5 71 283.5 74.5 283.5 75.5L284 130C284 135.5 284 137 280 137Z" fill="#58E655"/>
<path d="M58.2421 115.5C62.2421 110.5 64.2421 110 73.2421 110C99.7421 110 152.742 108 152.742 108C152.742 108 156.593 114.709 159.742 118.5C163.804 123.39 171.742 129.5 171.742 129.5C172.242 131.5 143.742 138 134.242 138.5C126.877 138.888 102.242 138.5 92.2421 138C82.2421 137.5 44.7421 137.5 44.7421 137.5C43.2421 137.5 42.242 136.1 43.742 134C46.2421 130.5 53.3137 121.66 58.2421 115.5Z" fill="#58E655"/>
<path d="M82.0001 32C100.5 31 184.5 33 184.5 33C184.5 33 170.5 40 165 44C159.5 48 152 59.5 152 59.5C104 59.5 96.5 59.5 84.5 60.5C79.019 60.9567 77.5 64 77.5 67.5C77.5 70.5 81 73 84.5 73H146C146 73 145.591 81.8153 146 86.5C146.404 91.1237 148 95 148 95C148 95 148 95.4 146 95C144 94.6 135.5 94.5 135.5 94.5C116.333 94.5 89 96.111 74.5 94.5C61 93 44.3681 87.0125 45 63C45.5 44 63.5 33 82.0001 32Z" fill="#58E655"/>
</svg>
