<?xml version="1.0" encoding="UTF-8"?>
<!DOCTYPE svg PUBLIC "-//W3C//DTD SVG 1.1//EN" "http://www.w3.org/Graphics/SVG/1.1/DTD/svg11.dtd">
<!-- Creator: CorelDRAW 2018 (64 Bit Versão de avaliação) -->
<svg xmlns="http://www.w3.org/2000/svg" xml:space="preserve" width="44.979mm" height="43.127mm" version="1.1" style="shape-rendering:geometricPrecision; text-rendering:geometricPrecision; image-rendering:optimizeQuality; fill-rule:evenodd; clip-rule:evenodd"
viewBox="0 0 4497.9 4312.7"
 xmlns:xlink="http://www.w3.org/1999/xlink">
 <defs>
  <style type="text/css">
   <![CDATA[
    .fil1 {fill:#231F1C}
    .fil0 {fill:#7ABA04}
   ]]>
  </style>
     <clipPath id="id0">
      <path d="M1788.11 683.85l2683.81 0 22.24 2870.56 -2683.81 0 -22.24 -2870.56z"/>
     </clipPath>
     <clipPath id="id1">
      <path d="M3.75 790.88l2683.81 0 22.24 2870.56 -2683.81 0 -22.24 -2870.56z"/>
     </clipPath>
     <clipPath id="id2">
      <path d="M1538.8 2560.87l1963.18 0 13.53 1746.32 -1963.18 0 -13.53 -1746.32z"/>
     </clipPath>
     <clipPath id="id3">
      <path d="M986.84 5.51l1981.71 0 13.75 1773.92 -1981.71 0 -13.75 -1773.92z"/>
     </clipPath>
 </defs>
 <g id="Camada_x0020_1">
  <metadata id="CorelCorpID_0Corel-Layer"/>
  <g id="_2033226733808">
   <g>
    <g style="clip-path:url(#id0)">
     <image x="1788.11" y="683.85" width="2706.05" height="2870.56" xlink:href="logo-pibiti_Images\logo-pibiti_ImgID1.png"/>
    </g>
   </g>
   <polygon class="fil0" points="2099.01,1850.39 2547.96,2266.04 2892.02,1894.74 3290.44,2270.34 2943.29,2638.48 3414.11,3070.62 4166.16,2231.97 2861.05,1015.07 "/>
   <g>
    <g style="clip-path:url(#id1)">
     <image x="3.75" y="790.88" width="2706.05" height="2870.56" xlink:href="logo-pibiti_Images\logo-pibiti_ImgID2.png"/>
    </g>
   </g>
   <polygon class="fil0" points="2381.8,2342.33 1932.85,1926.68 1588.79,2297.98 1190.37,1922.38 1537.52,1554.24 1066.7,1122.1 314.65,1960.75 1619.76,3177.65 "/>
   <g>
    <g style="clip-path:url(#id2)">
     <image x="1538.8" y="2560.87" width="1976.71" height="1746.32" xlink:href="logo-pibiti_Images\logo-pibiti_ImgID3.png"/>
    </g>
   </g>
   <polygon class="fil1" points="2171.54,2793.4 1727.93,3286 2524.6,4012.88 3315.97,3183.57 2860.86,2762.36 2524.6,3113.34 "/>
   <g>
    <g style="clip-path:url(#id3)">
     <image x="986.84" y="5.51" width="1995.46" height="1773.92" xlink:href="logo-pibiti_Images\logo-pibiti_ImgID4.png"/>
    </g>
   </g>
   <polygon class="fil1" points="1178.97,1069.38 1970.99,210.19 2779.6,974.54 2343.14,1413.34 2010.68,1096.54 1626.35,1480.46 "/>
  </g>
 </g>
</svg>
