<?xml version="1.0" encoding="UTF-8"?>
<!DOCTYPE svg PUBLIC "-//W3C//DTD SVG 1.1//EN" "http://www.w3.org/Graphics/SVG/1.1/DTD/svg11.dtd">
<!-- Creator: CorelDRAW X7 -->
<svg xmlns="http://www.w3.org/2000/svg" xml:space="preserve" width="280mm" height="130mm" version="1.1" style="shape-rendering:geometricPrecision; text-rendering:geometricPrecision; image-rendering:optimizeQuality; fill-rule:evenodd; clip-rule:evenodd"
viewBox="0 0 28000 13000"
 xmlns:xlink="http://www.w3.org/1999/xlink">
 <defs>
  <style type="text/css">
   <![CDATA[
    .fil0 {fill:#CECED6}
    .fil3 {fill:#1D6BAB;fill-rule:nonzero}
    .fil1 {fill:#2887D4;fill-rule:nonzero}
    .fil2 {fill:#5AEF5A;fill-rule:nonzero}
   ]]>
  </style>
 </defs>
 <g id="Camada_x0020_1">
  <metadata id="CorelCorpID_0Corel-Layer"/>
  <g id="_1443092119680">
   <path class="fil0" d="M19038 2538l0 -440c0,-257 63,-459 191,-608 128,-148 302,-223 522,-223 220,0 394,75 522,223 129,149 193,351 193,608l0 440c0,257 -64,460 -193,610 -128,149 -302,224 -522,224 -220,0 -394,-75 -522,-224 -128,-150 -191,-353 -191,-610zm571 -558l0 675c0,123 48,185 142,185 96,0 144,-62 144,-185l0 -675c0,-122 -48,-183 -144,-183 -94,0 -142,61 -142,183zm2139 -665l0 2006 -569 0 0 -2006 569 0zm1709 0l0 2006 -569 0 0 -2006 569 0zm707 1223l0 -440c0,-257 64,-459 192,-608 127,-148 301,-223 522,-223 220,0 394,75 522,223 128,149 192,351 192,608l0 440c0,257 -64,460 -192,610 -128,149 -302,224 -522,224 -221,0 -395,-75 -522,-224 -128,-150 -192,-353 -192,-610zm571 -558l0 675c0,123 48,185 143,185 95,0 143,-62 143,-185l0 -675c0,-122 -48,-183 -143,-183 -95,0 -143,61 -143,183zm-4696 2739l0 2005 -568 0 0 -2005 568 0zm707 1222l0 -440c0,-257 64,-459 192,-608 128,-148 302,-223 522,-223 220,0 394,75 522,223 129,149 193,351 193,608l0 440c0,257 -64,460 -193,610 -128,150 -302,224 -522,224 -220,0 -394,-74 -522,-224 -128,-150 -192,-353 -192,-610zm572 -558l0 676c0,122 47,184 142,184 96,0 143,-62 143,-184l0 -676c0,-122 -47,-183 -143,-183 -95,0 -142,61 -142,183zm1137 558l0 -440c0,-257 64,-459 192,-608 128,-148 301,-223 522,-223 220,0 394,75 522,223 128,149 192,351 192,608l0 440c0,257 -64,460 -192,610 -128,150 -302,224 -522,224 -221,0 -394,-74 -522,-224 -128,-150 -192,-353 -192,-610zm572 -558l0 676c0,122 47,184 142,184 96,0 143,-62 143,-184l0 -676c0,-122 -47,-183 -143,-183 -95,0 -142,61 -142,183zm2138 -664l0 2005 -568 0 0 -2005 568 0zm-5126 3403l0 2005 -568 0 0 -2005 568 0zm707 1222l0 -440c0,-257 64,-459 192,-607 128,-149 302,-223 522,-223 220,0 394,74 522,223 129,148 193,350 193,607l0 440c0,258 -64,460 -193,610 -128,150 -302,224 -522,224 -220,0 -394,-74 -522,-224 -128,-150 -192,-352 -192,-610zm572 -558l0 676c0,122 47,184 142,184 96,0 143,-62 143,-184l0 -676c0,-122 -47,-183 -143,-183 -95,0 -142,61 -142,183zm2139 -664l0 2005 -569 0 0 -2005 569 0zm707 1222l0 -440c0,-257 64,-459 192,-607 127,-149 301,-223 522,-223 220,0 394,74 522,223 128,148 192,350 192,607l0 440c0,258 -64,460 -192,610 -128,150 -302,224 -522,224 -221,0 -395,-74 -522,-224 -128,-150 -192,-352 -192,-610zm571 -558l0 676c0,122 48,184 143,184 95,0 143,-62 143,-184l0 -676c0,-122 -48,-183 -143,-183 -95,0 -143,61 -143,183z"/>
   <path class="fil1" d="M9885 6175l3551 0 0 2560 -1856 -650 0 -569 -2201 0 506 -1341zm3551 2897l0 1046c-577,160 -1118,272 -1626,336 -508,64 -1028,95 -1557,95 -1352,0 -2382,-337 -3095,-1011 -713,-674 -1068,-1641 -1068,-2902 0,-118 4,-234 12,-348l1956 769c55,636 248,1135 582,1499 397,434 976,652 1734,652 398,0 799,-33 1206,-104l0 -713 1856 681zm-7304 -3089c125,-919 523,-1657 1197,-2217 826,-686 1973,-1029 3438,-1029 918,0 1804,156 2657,469l-632 1287c-652,-276 -1331,-415 -2037,-415 -822,0 -1478,234 -1971,701 -495,468 -742,1098 -742,1887 0,29 0,57 1,85l-1911 -768z"/>
   <path class="fil2" d="M7091 9850c-51,42 -105,82 -162,120 -583,396 -1392,593 -2429,593 -955,0 -1801,-153 -2535,-458l0 -1497c604,229 1114,390 1534,484 418,94 801,140 1148,140 418,0 735,-67 959,-202 221,-137 334,-337 334,-603 0,-17 0,-34 -2,-51 178,458 437,848 779,1172 116,109 241,210 374,302zm-1248 -1752c-15,-24 -32,-46 -51,-68 -98,-118 -242,-229 -431,-336 -190,-108 -576,-280 -1162,-516 -547,-218 -957,-427 -1230,-628 -274,-200 -492,-434 -655,-702 -165,-266 -246,-579 -246,-935 0,-672 269,-1201 806,-1586 538,-385 1280,-577 2226,-577 404,0 3574,-14 4846,0 0,0 -590,38 -590,38 -1011,123 -1834,461 -2467,987 -194,161 -365,337 -514,527 -177,-53 -325,-94 -414,-113 -313,-67 -620,-97 -923,-97 -358,0 -634,70 -826,212 -192,142 -288,329 -288,557 0,142 39,265 117,371 77,107 200,208 370,307 169,99 570,277 1203,532 22,9 43,18 65,27 -20,176 -30,358 -30,548 0,537 65,1021 194,1452z"/>
   <path class="fil1" d="M17334 10368l-1898 0 0 -5872 -2291 0 707 -1420c-280,-61 -559,-121 -839,-182l-1039 -126 7790 0 -76 1750 -2354 -6 0 5856z"/>
   <polygon class="fil3" points="21568,10368 19671,10368 19671,4496 17380,4496 18241,2768 23999,2768 23923,4518 21568,4512 "/>
   <path class="fil2" d="M13436 9072l0 1046c-577,160 -1118,272 -1626,336 -508,64 -1028,95 -1557,95 -1352,0 -2382,-337 -3095,-1011 -713,-674 -1068,-1641 -1068,-2902 0,-118 4,-234 12,-348l1956 769c55,636 248,1135 582,1499 397,434 976,652 1734,652 398,0 799,-33 1206,-104l0 -713 1856 681zm-4009 -1556l-48 0 6 -16 42 16z"/>
  </g>
 </g>
</svg>
